# xmcd CD database file
#
# Track frame offsets:
#	183
#	23580
#	37818
#	52543
#	65205
#	83523
#	99850
#	109333
#	130293
#	142085
#	158113
#	190448
#	218323
#	236638
#	255073
#	276530
#	294938
#
# Disc length: 4252 seconds
#
# Revision: 1
# Processed by: cddbd v1.5.1PL0 Copyright (c) Steve Scherf et al.
# Submitted via: CDex 1.51
#
DISCID=e0109a11
DTITLE=Nina Simone - My Way
DYEAR=1989
DGENRE=Blues
TTITLE0=My Way
TTITLE1=Black is the Colour
TTITLE2=Angel Of The Morning
TTITLE3=Do Nothin' Till You Hear From Me
TTITLE4=I Loves You Porgy
TTITLE5=My Baby Just Cares For Me
TTITLE6=The Gal From Joe's
TTITLE7=Blue Prelude
TTITLE8=Work Song
TTITLE9=Satin Doll
TTITLE10=House Of The Rising Sun
TTITLE11=Gin House Blues
TTITLE12=Little Liza Jane
TTITLE13=Don't Let Me Be Misunderstood
TTITLE14=Just In Time
TTITLE15=Sea Lion Woman
TTITLE16=Ne Me Quitte Pas
EXTD=YEAR: 1989
EXTT0=
EXTT1=
EXTT2=
EXTT3=
EXTT4=
EXTT5=
EXTT6=
EXTT7=
EXTT8=
EXTT9=
EXTT10=
EXTT11=
EXTT12=
EXTT13=
EXTT14=
EXTT15=
EXTT16=
PLAYORDER=
